<svg width="1146" height="334" viewBox="0 0 1146 334" fill="none" xmlns="http://www.w3.org/2000/svg">
<path d="M227.76 117.34C217.9 103.53 204.04 92.8 187.91 86.81C178.63 83.35 168.6 81.46 158.16 81.46C110.85 81.46 72.71 119.61 72.71 166.93C72.71 214.25 110.85 252.38 158.16 252.38C205.47 252.38 243.63 213.94 243.63 166.93C243.63 148.42 237.74 131.32 227.77 117.35L227.76 117.34ZM158.15 246.17C114.39 246.17 78.9 210.69 78.9 166.92C78.9 123.15 114.38 87.66 158.15 87.66C167.79 87.66 177.02 89.38 185.55 92.52C200.7 98.12 213.69 108.2 222.85 121.16C232.01 134.09 237.4 149.89 237.4 166.92C237.4 210.69 201.92 246.17 158.15 246.17Z" fill="#83B321"/>
<path d="M158.31 224.87C126.37 224.87 100.35 198.85 100.35 166.91C100.35 134.97 126.08 108.95 158.31 108.95C190.54 108.95 215.97 134.97 215.97 166.91C216.27 198.85 190.24 224.87 158.31 224.87ZM158.31 218.66C186.99 218.66 210.06 195.3 210.06 166.91C210.06 138.52 186.7 115.16 158.31 115.16C129.92 115.16 106.56 138.52 106.56 166.91C106.56 195.3 129.63 218.66 158.31 218.66Z" fill="#83B321"/>
<path d="M158.16 196.48C141.6 196.48 128.59 183.17 128.59 166.91C128.59 150.65 141.9 137.34 158.16 137.34C174.42 137.34 187.73 150.65 187.73 166.91C188.03 183.17 174.42 196.48 158.16 196.48ZM158.16 190.27C171.17 190.27 181.52 179.92 181.52 166.91C181.52 153.9 171.17 143.55 158.16 143.55C145.15 143.55 134.8 153.9 134.8 166.91C134.5 179.92 145.15 190.27 158.16 190.27Z" fill="#83B321"/>
<path d="M227.76 117.34L222.85 121.16L160.93 169.5L159.98 170.13C159.52 170.13 159.06 170.82 157.66 170.21C156.68 169.78 155.87 168.98 155.45 168C154.84 166.59 155.53 166.13 155.53 165.68V165.36L185.56 92.52L187.91 86.81C204.04 92.8 217.91 103.53 227.76 117.34Z" fill="#83B321"/>
<path d="M358.62 195.74H316.38L303.58 219.3H281.04L341.31 112.72H365.66L382.96 219.3H362.17L358.61 195.74H358.62ZM355.93 178L349.75 135.11L324.01 178H355.93Z" fill="#FBFDF8"/>
<path d="M407.88 142.09H428.75L412.61 219.3H391.74L407.88 142.09ZM413.99 112.71H434.86L430.93 131.61H410.06L413.99 112.71Z" fill="#FBFDF8"/>
<path d="M443.62 142.09H463.1L459.97 157.07C467.24 145.87 475.12 140.28 483.6 140.28C486.61 140.28 489.83 141.03 493.27 142.53L485.27 159.61C483.38 158.93 481.37 158.59 479.24 158.59C475.65 158.59 472.01 159.95 468.3 162.66C464.59 165.37 461.7 169 459.61 173.53C457.53 178.06 455.47 185.25 453.43 195.09L448.34 219.3H427.47L443.61 142.09H443.62Z" fill="#FBFDF8"/>
<path d="M567.47 219.29H547.04L518.25 147.68L503.27 219.29H482.84L505.09 112.71H525.59L554.45 184.03L569.35 112.71H589.71L567.46 219.29H567.47Z" fill="#FBFDF8"/>
<path d="M614.62 163.97L594.26 162.23C596.59 155.35 600.65 149.97 606.44 146.09C612.23 142.21 619.9 140.27 629.45 140.27C639 140.27 646.73 142.27 651.48 146.27C656.23 150.27 658.6 155.15 658.6 160.92C658.6 163.25 658.39 165.72 657.98 168.34C657.57 170.96 656.13 177.84 653.65 188.99C651.61 198.2 650.6 204.65 650.6 208.33C650.6 211.63 651.18 215.29 652.34 219.31H632.06C631.23 216.5 630.73 213.59 630.53 210.59C627.48 213.98 623.96 216.59 619.99 218.41C616.02 220.23 612.02 221.14 608 221.14C601.6 221.14 596.32 219.04 592.15 214.85C587.98 210.66 585.9 205.27 585.9 198.67C585.9 191.3 588.19 185.41 592.77 181C597.35 176.59 605.53 173.92 617.31 173C627.24 172.18 633.89 171.18 637.23 170.02C638.1 167.11 638.54 164.79 638.54 163.04C638.54 160.81 637.64 158.94 635.85 157.44C634.06 155.94 631.39 155.19 627.85 155.19C624.12 155.19 621.17 155.95 619.02 157.48C616.86 159.01 615.4 161.18 614.62 163.99V163.97ZM634.47 183.31C633.21 183.65 631.54 183.96 629.45 184.25C618.98 185.51 612.15 187.35 608.95 189.78C606.67 191.52 605.53 193.88 605.53 196.83C605.53 199.25 606.4 201.3 608.15 202.97C609.9 204.64 612.2 205.48 615.06 205.48C618.21 205.48 621.18 204.72 623.97 203.19C626.76 201.66 628.84 199.7 630.22 197.3C631.6 194.9 632.82 191.16 633.89 186.07L634.47 183.31Z" fill="#FBFDF8"/>
<path d="M702.12 219.29H684.16L668.67 142.08H689.17L694.62 175.74C696.12 184.85 697.02 190.91 697.31 193.92C697.7 193.1 699.38 189.96 702.36 184.51C705.34 179.06 707.17 175.77 707.85 174.66L727.04 142.09H749.58L702.11 219.3L702.12 219.29Z" fill="#FBFDF8"/>
<path d="M738.66 199.23C740.54 199.23 742.34 199.7 744.06 200.64C745.78 201.58 747.14 202.92 748.12 204.68C749.11 206.43 749.6 208.27 749.6 210.18C749.6 212.09 749.12 213.9 748.15 215.63C747.18 217.36 745.84 218.71 744.11 219.67C742.38 220.64 740.57 221.12 738.66 221.12C736.75 221.12 734.94 220.64 733.21 219.67C731.48 218.7 730.13 217.36 729.17 215.63C728.2 213.9 727.72 212.09 727.72 210.18C727.72 208.27 728.21 206.43 729.2 204.68C730.19 202.93 731.54 201.58 733.26 200.64C734.98 199.7 736.78 199.23 738.66 199.23ZM738.67 201.37C737.17 201.37 735.72 201.75 734.34 202.5C732.96 203.25 731.87 204.33 731.08 205.74C730.28 207.15 729.89 208.63 729.89 210.17C729.89 211.71 730.28 213.17 731.05 214.56C731.83 215.95 732.91 217.04 734.3 217.82C735.69 218.6 737.15 218.99 738.67 218.99C740.19 218.99 741.66 218.6 743.05 217.82C744.44 217.04 745.52 215.95 746.3 214.56C747.08 213.17 747.47 211.71 747.47 210.17C747.47 208.63 747.07 207.15 746.28 205.74C745.48 204.33 744.39 203.25 743.01 202.5C741.63 201.75 740.18 201.37 738.67 201.37ZM733.71 216.03V204.42H736.07C738.28 204.42 739.52 204.42 739.78 204.45C740.56 204.52 741.17 204.67 741.6 204.91C742.03 205.15 742.4 205.52 742.69 206.02C742.98 206.52 743.13 207.07 743.13 207.68C743.13 208.52 742.86 209.23 742.31 209.83C741.76 210.43 740.99 210.79 740 210.94C740.35 211.07 740.62 211.22 740.81 211.38C741 211.54 741.26 211.83 741.6 212.27C741.69 212.38 741.97 212.86 742.46 213.68L743.83 216.02H740.92L739.95 214.13C739.29 212.86 738.75 212.07 738.32 211.74C737.89 211.41 737.35 211.25 736.69 211.25H736.08V216.02H733.72L733.71 216.03ZM736.07 209.43H737.03C738.39 209.43 739.24 209.38 739.57 209.27C739.9 209.17 740.16 208.98 740.35 208.72C740.54 208.46 740.64 208.16 740.64 207.83C740.64 207.5 740.55 207.22 740.36 206.97C740.17 206.72 739.91 206.54 739.57 206.43C739.23 206.32 738.38 206.27 737.04 206.27H736.08V209.44L736.07 209.43Z" fill="#FBFDF8"/>
<path d="M789.6 219.79H773.59L789.86 142.09H824.36C830.3 142.09 834.92 142.7 838.22 143.92C841.52 145.14 844.19 147.37 846.22 150.62C848.25 153.87 849.27 157.81 849.27 162.44C849.27 169.05 847.29 174.5 843.33 178.79C839.37 183.08 833.38 185.74 825.36 186.77C827.41 188.61 829.34 191.03 831.14 194.03C834.71 200.11 838.68 208.69 843.07 219.79H825.9C824.52 215.41 821.82 208.57 817.79 199.28C815.6 194.26 813.27 190.89 810.79 189.16C809.27 188.14 806.62 187.62 802.84 187.62H796.32L789.59 219.79H789.6ZM798.77 175.95H807.25C815.84 175.95 821.53 175.44 824.34 174.41C827.15 173.39 829.35 171.78 830.94 169.59C832.53 167.4 833.32 165.1 833.32 162.7C833.32 159.87 832.17 157.75 829.88 156.34C828.47 155.49 825.41 155.07 820.71 155.07H803.11L798.76 175.95H798.77Z" fill="#83B321"/>
<path d="M869.77 179.45L854.93 178.18C856.63 173.16 859.59 169.24 863.81 166.41C868.03 163.58 873.62 162.17 880.59 162.17C887.56 162.17 893.19 163.63 896.65 166.54C900.11 169.46 901.84 173.02 901.84 177.22C901.84 178.92 901.69 180.72 901.39 182.63C901.09 184.54 900.04 189.56 898.24 197.68C896.76 204.39 896.01 209.09 896.01 211.78C896.01 214.18 896.43 216.85 897.28 219.78H882.49C881.89 217.73 881.52 215.61 881.38 213.42C879.15 215.89 876.59 217.79 873.69 219.12C870.79 220.45 867.88 221.11 864.95 221.11C860.29 221.11 856.43 219.58 853.4 216.53C850.36 213.47 848.84 209.54 848.84 204.74C848.84 199.37 850.51 195.08 853.85 191.86C857.19 188.64 863.15 186.7 871.74 186.03C878.98 185.43 883.82 184.7 886.26 183.86C886.9 181.74 887.21 180.04 887.21 178.77C887.21 177.14 886.56 175.79 885.25 174.69C883.94 173.6 882 173.05 879.42 173.05C876.7 173.05 874.55 173.61 872.98 174.72C871.41 175.83 870.34 177.42 869.77 179.46V179.45ZM884.24 193.55C883.32 193.8 882.1 194.03 880.58 194.24C872.95 195.16 867.96 196.5 865.63 198.27C863.97 199.54 863.14 201.26 863.14 203.41C863.14 205.18 863.78 206.67 865.05 207.89C866.32 209.11 868 209.72 870.09 209.72C872.39 209.72 874.55 209.16 876.58 208.05C878.61 206.94 880.13 205.51 881.14 203.76C882.15 202.01 883.04 199.28 883.82 195.57L884.24 193.56V193.55Z" fill="#83B321"/>
<path d="M957.41 219.79H942.99L944.26 213.69C941.5 216.34 938.79 218.24 936.12 219.39C933.45 220.54 930.44 221.11 927.08 221.11C921.25 221.11 916.52 219.12 912.9 215.15C909.28 211.18 907.47 205.3 907.47 197.53C907.47 188.52 910.01 180.38 915.1 173.1C920.19 165.82 926.92 162.18 935.29 162.18C942.85 162.18 948.52 165.18 952.3 171.19L958.4 142.09H973.61L957.39 219.79H957.41ZM922.27 196.89C922.27 200.92 923.29 204.06 925.32 206.32C927.35 208.58 929.85 209.71 932.82 209.71C935.58 209.71 938.15 208.76 940.53 206.87C942.92 204.98 944.82 202.09 946.25 198.2C947.68 194.31 948.4 190.59 948.4 187.02C948.4 182.96 947.3 179.67 945.11 177.16C942.92 174.65 940.39 173.4 937.53 173.4C933.08 173.4 929.42 175.87 926.56 180.82C923.7 185.77 922.27 191.12 922.27 196.88V196.89Z" fill="#83B321"/>
<path d="M989.93 179.45L975.09 178.18C976.79 173.16 979.75 169.24 983.97 166.41C988.19 163.58 993.78 162.17 1000.75 162.17C1007.72 162.17 1013.35 163.63 1016.81 166.54C1020.27 169.46 1022 173.02 1022 177.22C1022 178.92 1021.85 180.72 1021.55 182.63C1021.25 184.54 1020.2 189.56 1018.4 197.68C1016.92 204.39 1016.17 209.09 1016.17 211.78C1016.17 214.18 1016.59 216.85 1017.44 219.78H1002.65C1002.05 217.73 1001.68 215.61 1001.54 213.42C999.31 215.89 996.75 217.79 993.85 219.12C990.95 220.45 988.04 221.11 985.11 221.11C980.45 221.11 976.59 219.58 973.56 216.53C970.52 213.47 969 209.54 969 204.74C969 199.37 970.67 195.08 974.01 191.86C977.35 188.64 983.31 186.7 991.9 186.03C999.14 185.43 1003.98 184.7 1006.42 183.86C1007.06 181.74 1007.37 180.04 1007.37 178.77C1007.37 177.14 1006.72 175.79 1005.41 174.69C1004.1 173.6 1002.16 173.05 999.58 173.05C996.86 173.05 994.71 173.61 993.14 174.72C991.57 175.83 990.5 177.42 989.93 179.46V179.45ZM1004.4 193.55C1003.48 193.8 1002.26 194.03 1000.74 194.24C993.11 195.16 988.12 196.5 985.79 198.27C984.13 199.54 983.3 201.26 983.3 203.41C983.3 205.18 983.94 206.67 985.21 207.89C986.48 209.11 988.16 209.72 990.25 209.72C992.55 209.72 994.71 209.16 996.74 208.05C998.77 206.94 1000.29 205.51 1001.3 203.76C1002.31 202.01 1003.2 199.28 1003.98 195.57L1004.4 193.56V193.55Z" fill="#83B321"/>
<path d="M1036.5 163.5H1050.71L1048.43 174.42C1053.73 166.26 1059.47 162.18 1065.66 162.18C1067.85 162.18 1070.2 162.73 1072.71 163.82L1066.88 176.28C1065.5 175.79 1064.04 175.54 1062.48 175.54C1059.86 175.54 1057.21 176.53 1054.5 178.51C1051.8 180.49 1049.69 183.13 1048.17 186.43C1046.65 189.73 1045.15 194.97 1043.66 202.15L1039.95 219.8H1024.74L1036.51 163.51L1036.5 163.5Z" fill="#83B321"/>
</svg>
